
    <svg xmlns="http://www.w3.org/2000/svg" version="1.1" width="840" height="840">
    <line x1="20" y1="820" x2="100" y2="820" style="fill:none; stroke:black; stroke-width:"2" />
<line x1="20" y1="820" x2="20" y2="740" style="fill:none; stroke:black; stroke-width:"2" />
<line x1="20" y1="820" x2="100" y2="740" style="fill:none; stroke:black; stroke-width:"2" />
<line x1="100" y1="820" x2="180" y2="820" style="fill:none; stroke:black; stroke-width:"2" />
<line x1="100" y1="820" x2="100" y2="740" style="fill:none; stroke:black; stroke-width:"2" />
<line x1="100" y1="820" x2="180" y2="740" style="fill:none; stroke:black; stroke-width:"2" />
<line x1="180" y1="820" x2="260" y2="820" style="fill:none; stroke:black; stroke-width:"2" />
<line x1="180" y1="820" x2="180" y2="740" style="fill:none; stroke:black; stroke-width:"2" />
<line x1="180" y1="820" x2="260" y2="740" style="fill:none; stroke:black; stroke-width:"2" />
<line x1="260" y1="820" x2="340" y2="820" style="fill:none; stroke:black; stroke-width:"2" />
<line x1="260" y1="820" x2="260" y2="740" style="fill:none; stroke:black; stroke-width:"2" />
<line x1="260" y1="820" x2="340" y2="740" style="fill:none; stroke:black; stroke-width:"2" />
<line x1="340" y1="820" x2="420" y2="820" style="fill:none; stroke:black; stroke-width:"2" />
<line x1="340" y1="820" x2="340" y2="740" style="fill:none; stroke:black; stroke-width:"2" />
<line x1="340" y1="820" x2="420" y2="740" style="fill:none; stroke:black; stroke-width:"2" />
<line x1="420" y1="820" x2="500" y2="820" style="fill:none; stroke:black; stroke-width:"2" />
<line x1="420" y1="820" x2="420" y2="740" style="fill:none; stroke:black; stroke-width:"2" />
<line x1="420" y1="820" x2="500" y2="740" style="fill:none; stroke:black; stroke-width:"2" />
<line x1="500" y1="820" x2="580" y2="820" style="fill:none; stroke:black; stroke-width:"2" />
<line x1="500" y1="820" x2="500" y2="740" style="fill:none; stroke:black; stroke-width:"2" />
<line x1="500" y1="820" x2="580" y2="740" style="fill:none; stroke:black; stroke-width:"2" />
<line x1="580" y1="820" x2="660" y2="820" style="fill:none; stroke:black; stroke-width:"2" />
<line x1="580" y1="820" x2="580" y2="740" style="fill:none; stroke:black; stroke-width:"2" />
<line x1="580" y1="820" x2="660" y2="740" style="fill:none; stroke:black; stroke-width:"2" />
<line x1="660" y1="820" x2="740" y2="820" style="fill:none; stroke:black; stroke-width:"2" />
<line x1="660" y1="820" x2="660" y2="740" style="fill:none; stroke:black; stroke-width:"2" />
<line x1="660" y1="820" x2="740" y2="740" style="fill:none; stroke:black; stroke-width:"2" />
<line x1="740" y1="820" x2="820" y2="820" style="fill:none; stroke:black; stroke-width:"2" />
<line x1="740" y1="820" x2="740" y2="740" style="fill:none; stroke:black; stroke-width:"2" />
<line x1="740" y1="820" x2="820" y2="740" style="fill:none; stroke:black; stroke-width:"2" />
<line x1="820" y1="820" x2="820" y2="740" style="fill:none; stroke:black; stroke-width:"2" />
<line x1="20" y1="740" x2="100" y2="740" style="fill:none; stroke:black; stroke-width:"2" />
<line x1="20" y1="740" x2="20" y2="660" style="fill:none; stroke:black; stroke-width:"2" />
<line x1="20" y1="740" x2="100" y2="660" style="fill:none; stroke:black; stroke-width:"2" />
<line x1="100" y1="740" x2="180" y2="740" style="fill:none; stroke:black; stroke-width:"2" />
<line x1="100" y1="740" x2="100" y2="660" style="fill:none; stroke:black; stroke-width:"2" />
<line x1="100" y1="740" x2="180" y2="660" style="fill:none; stroke:black; stroke-width:"2" />
<line x1="180" y1="740" x2="260" y2="740" style="fill:none; stroke:black; stroke-width:"2" />
<line x1="180" y1="740" x2="180" y2="660" style="fill:none; stroke:black; stroke-width:"2" />
<line x1="180" y1="740" x2="260" y2="660" style="fill:none; stroke:black; stroke-width:"2" />
<line x1="260" y1="740" x2="340" y2="740" style="fill:none; stroke:black; stroke-width:"2" />
<line x1="260" y1="740" x2="260" y2="660" style="fill:none; stroke:black; stroke-width:"2" />
<line x1="260" y1="740" x2="340" y2="660" style="fill:none; stroke:black; stroke-width:"2" />
<line x1="340" y1="740" x2="420" y2="740" style="fill:none; stroke:black; stroke-width:"2" />
<line x1="340" y1="740" x2="340" y2="660" style="fill:none; stroke:black; stroke-width:"2" />
<line x1="340" y1="740" x2="420" y2="660" style="fill:none; stroke:black; stroke-width:"2" />
<line x1="420" y1="740" x2="500" y2="740" style="fill:none; stroke:black; stroke-width:"2" />
<line x1="420" y1="740" x2="420" y2="660" style="fill:none; stroke:black; stroke-width:"2" />
<line x1="420" y1="740" x2="500" y2="660" style="fill:none; stroke:black; stroke-width:"2" />
<line x1="500" y1="740" x2="580" y2="740" style="fill:none; stroke:black; stroke-width:"2" />
<line x1="500" y1="740" x2="500" y2="660" style="fill:none; stroke:black; stroke-width:"2" />
<line x1="500" y1="740" x2="580" y2="660" style="fill:none; stroke:black; stroke-width:"2" />
<line x1="580" y1="740" x2="660" y2="740" style="fill:none; stroke:black; stroke-width:"2" />
<line x1="580" y1="740" x2="580" y2="660" style="fill:none; stroke:black; stroke-width:"2" />
<line x1="580" y1="740" x2="660" y2="660" style="fill:none; stroke:black; stroke-width:"2" />
<line x1="660" y1="740" x2="740" y2="740" style="fill:none; stroke:black; stroke-width:"2" />
<line x1="660" y1="740" x2="660" y2="660" style="fill:none; stroke:black; stroke-width:"2" />
<line x1="660" y1="740" x2="740" y2="660" style="fill:none; stroke:black; stroke-width:"2" />
<line x1="740" y1="740" x2="820" y2="740" style="fill:none; stroke:black; stroke-width:"2" />
<line x1="740" y1="740" x2="740" y2="660" style="fill:none; stroke:black; stroke-width:"2" />
<line x1="740" y1="740" x2="820" y2="660" style="fill:none; stroke:black; stroke-width:"2" />
<line x1="820" y1="740" x2="820" y2="660" style="fill:none; stroke:black; stroke-width:"2" />
<line x1="20" y1="660" x2="100" y2="660" style="fill:none; stroke:black; stroke-width:"2" />
<line x1="20" y1="660" x2="20" y2="580" style="fill:none; stroke:black; stroke-width:"2" />
<line x1="20" y1="660" x2="100" y2="580" style="fill:none; stroke:black; stroke-width:"2" />
<line x1="100" y1="660" x2="180" y2="660" style="fill:none; stroke:black; stroke-width:"2" />
<line x1="100" y1="660" x2="100" y2="580" style="fill:none; stroke:black; stroke-width:"2" />
<line x1="100" y1="660" x2="180" y2="580" style="fill:none; stroke:black; stroke-width:"2" />
<line x1="180" y1="660" x2="260" y2="660" style="fill:none; stroke:black; stroke-width:"2" />
<line x1="180" y1="660" x2="180" y2="580" style="fill:none; stroke:black; stroke-width:"2" />
<line x1="180" y1="660" x2="260" y2="580" style="fill:none; stroke:black; stroke-width:"2" />
<line x1="260" y1="660" x2="340" y2="660" style="fill:none; stroke:black; stroke-width:"2" />
<line x1="260" y1="660" x2="260" y2="580" style="fill:none; stroke:black; stroke-width:"2" />
<line x1="260" y1="660" x2="340" y2="580" style="fill:none; stroke:black; stroke-width:"2" />
<line x1="340" y1="660" x2="420" y2="660" style="fill:none; stroke:black; stroke-width:"2" />
<line x1="340" y1="660" x2="340" y2="580" style="fill:none; stroke:black; stroke-width:"2" />
<line x1="340" y1="660" x2="420" y2="580" style="fill:none; stroke:black; stroke-width:"2" />
<line x1="420" y1="660" x2="500" y2="660" style="fill:none; stroke:black; stroke-width:"2" />
<line x1="420" y1="660" x2="420" y2="580" style="fill:none; stroke:black; stroke-width:"2" />
<line x1="420" y1="660" x2="500" y2="580" style="fill:none; stroke:black; stroke-width:"2" />
<line x1="500" y1="660" x2="580" y2="660" style="fill:none; stroke:black; stroke-width:"2" />
<line x1="500" y1="660" x2="500" y2="580" style="fill:none; stroke:black; stroke-width:"2" />
<line x1="500" y1="660" x2="580" y2="580" style="fill:none; stroke:black; stroke-width:"2" />
<line x1="580" y1="660" x2="660" y2="660" style="fill:none; stroke:black; stroke-width:"2" />
<line x1="580" y1="660" x2="580" y2="580" style="fill:none; stroke:black; stroke-width:"2" />
<line x1="580" y1="660" x2="660" y2="580" style="fill:none; stroke:black; stroke-width:"2" />
<line x1="660" y1="660" x2="740" y2="660" style="fill:none; stroke:black; stroke-width:"2" />
<line x1="660" y1="660" x2="660" y2="580" style="fill:none; stroke:black; stroke-width:"2" />
<line x1="660" y1="660" x2="740" y2="580" style="fill:none; stroke:black; stroke-width:"2" />
<line x1="740" y1="660" x2="820" y2="660" style="fill:none; stroke:black; stroke-width:"2" />
<line x1="740" y1="660" x2="740" y2="580" style="fill:none; stroke:black; stroke-width:"2" />
<line x1="740" y1="660" x2="820" y2="580" style="fill:none; stroke:black; stroke-width:"2" />
<line x1="820" y1="660" x2="820" y2="580" style="fill:none; stroke:black; stroke-width:"2" />
<line x1="20" y1="580" x2="100" y2="580" style="fill:none; stroke:black; stroke-width:"2" />
<line x1="20" y1="580" x2="20" y2="500" style="fill:none; stroke:black; stroke-width:"2" />
<line x1="20" y1="580" x2="100" y2="500" style="fill:none; stroke:black; stroke-width:"2" />
<line x1="100" y1="580" x2="180" y2="580" style="fill:none; stroke:black; stroke-width:"2" />
<line x1="100" y1="580" x2="100" y2="500" style="fill:none; stroke:black; stroke-width:"2" />
<line x1="100" y1="580" x2="180" y2="500" style="fill:none; stroke:black; stroke-width:"2" />
<line x1="180" y1="580" x2="260" y2="580" style="fill:none; stroke:black; stroke-width:"2" />
<line x1="180" y1="580" x2="180" y2="500" style="fill:none; stroke:black; stroke-width:"2" />
<line x1="180" y1="580" x2="260" y2="500" style="fill:none; stroke:black; stroke-width:"2" />
<line x1="260" y1="580" x2="340" y2="580" style="fill:none; stroke:black; stroke-width:"2" />
<line x1="260" y1="580" x2="260" y2="500" style="fill:none; stroke:black; stroke-width:"2" />
<line x1="260" y1="580" x2="340" y2="500" style="fill:none; stroke:black; stroke-width:"2" />
<line x1="340" y1="580" x2="420" y2="580" style="fill:none; stroke:black; stroke-width:"2" />
<line x1="340" y1="580" x2="340" y2="500" style="fill:none; stroke:black; stroke-width:"2" />
<line x1="340" y1="580" x2="420" y2="500" style="fill:none; stroke:black; stroke-width:"2" />
<line x1="420" y1="580" x2="500" y2="580" style="fill:none; stroke:black; stroke-width:"2" />
<line x1="420" y1="580" x2="420" y2="500" style="fill:none; stroke:black; stroke-width:"2" />
<line x1="420" y1="580" x2="500" y2="500" style="fill:none; stroke:black; stroke-width:"2" />
<line x1="500" y1="580" x2="580" y2="580" style="fill:none; stroke:black; stroke-width:"2" />
<line x1="500" y1="580" x2="500" y2="500" style="fill:none; stroke:black; stroke-width:"2" />
<line x1="500" y1="580" x2="580" y2="500" style="fill:none; stroke:black; stroke-width:"2" />
<line x1="580" y1="580" x2="660" y2="580" style="fill:none; stroke:black; stroke-width:"2" />
<line x1="580" y1="580" x2="580" y2="500" style="fill:none; stroke:black; stroke-width:"2" />
<line x1="580" y1="580" x2="660" y2="500" style="fill:none; stroke:black; stroke-width:"2" />
<line x1="660" y1="580" x2="740" y2="580" style="fill:none; stroke:black; stroke-width:"2" />
<line x1="660" y1="580" x2="660" y2="500" style="fill:none; stroke:black; stroke-width:"2" />
<line x1="660" y1="580" x2="740" y2="500" style="fill:none; stroke:black; stroke-width:"2" />
<line x1="740" y1="580" x2="820" y2="580" style="fill:none; stroke:black; stroke-width:"2" />
<line x1="740" y1="580" x2="740" y2="500" style="fill:none; stroke:black; stroke-width:"2" />
<line x1="740" y1="580" x2="820" y2="500" style="fill:none; stroke:black; stroke-width:"2" />
<line x1="820" y1="580" x2="820" y2="500" style="fill:none; stroke:black; stroke-width:"2" />
<line x1="20" y1="500" x2="100" y2="500" style="fill:none; stroke:black; stroke-width:"2" />
<line x1="20" y1="500" x2="20" y2="420" style="fill:none; stroke:black; stroke-width:"2" />
<line x1="20" y1="500" x2="100" y2="420" style="fill:none; stroke:black; stroke-width:"2" />
<line x1="100" y1="500" x2="180" y2="500" style="fill:none; stroke:black; stroke-width:"2" />
<line x1="100" y1="500" x2="100" y2="420" style="fill:none; stroke:black; stroke-width:"2" />
<line x1="100" y1="500" x2="180" y2="420" style="fill:none; stroke:black; stroke-width:"2" />
<line x1="180" y1="500" x2="260" y2="500" style="fill:none; stroke:black; stroke-width:"2" />
<line x1="180" y1="500" x2="180" y2="420" style="fill:none; stroke:black; stroke-width:"2" />
<line x1="180" y1="500" x2="260" y2="420" style="fill:none; stroke:black; stroke-width:"2" />
<line x1="260" y1="500" x2="340" y2="500" style="fill:none; stroke:black; stroke-width:"2" />
<line x1="260" y1="500" x2="260" y2="420" style="fill:none; stroke:black; stroke-width:"2" />
<line x1="260" y1="500" x2="340" y2="420" style="fill:none; stroke:black; stroke-width:"2" />
<line x1="340" y1="500" x2="420" y2="500" style="fill:none; stroke:black; stroke-width:"2" />
<line x1="340" y1="500" x2="340" y2="420" style="fill:none; stroke:black; stroke-width:"2" />
<line x1="340" y1="500" x2="420" y2="420" style="fill:none; stroke:black; stroke-width:"2" />
<line x1="420" y1="500" x2="500" y2="500" style="fill:none; stroke:black; stroke-width:"2" />
<line x1="420" y1="500" x2="420" y2="420" style="fill:none; stroke:black; stroke-width:"2" />
<line x1="420" y1="500" x2="500" y2="420" style="fill:none; stroke:black; stroke-width:"2" />
<line x1="500" y1="500" x2="580" y2="500" style="fill:none; stroke:black; stroke-width:"2" />
<line x1="500" y1="500" x2="500" y2="420" style="fill:none; stroke:black; stroke-width:"2" />
<line x1="500" y1="500" x2="580" y2="420" style="fill:none; stroke:black; stroke-width:"2" />
<line x1="580" y1="500" x2="660" y2="500" style="fill:none; stroke:black; stroke-width:"2" />
<line x1="580" y1="500" x2="580" y2="420" style="fill:none; stroke:black; stroke-width:"2" />
<line x1="580" y1="500" x2="660" y2="420" style="fill:none; stroke:black; stroke-width:"2" />
<line x1="660" y1="500" x2="740" y2="500" style="fill:none; stroke:black; stroke-width:"2" />
<line x1="660" y1="500" x2="660" y2="420" style="fill:none; stroke:black; stroke-width:"2" />
<line x1="660" y1="500" x2="740" y2="420" style="fill:none; stroke:black; stroke-width:"2" />
<line x1="740" y1="500" x2="820" y2="500" style="fill:none; stroke:black; stroke-width:"2" />
<line x1="740" y1="500" x2="740" y2="420" style="fill:none; stroke:black; stroke-width:"2" />
<line x1="740" y1="500" x2="820" y2="420" style="fill:none; stroke:black; stroke-width:"2" />
<line x1="820" y1="500" x2="820" y2="420" style="fill:none; stroke:black; stroke-width:"2" />
<line x1="20" y1="420" x2="100" y2="420" style="fill:none; stroke:black; stroke-width:"2" />
<line x1="20" y1="420" x2="20" y2="340" style="fill:none; stroke:black; stroke-width:"2" />
<line x1="20" y1="420" x2="100" y2="340" style="fill:none; stroke:black; stroke-width:"2" />
<line x1="100" y1="420" x2="180" y2="420" style="fill:none; stroke:black; stroke-width:"2" />
<line x1="100" y1="420" x2="100" y2="340" style="fill:none; stroke:black; stroke-width:"2" />
<line x1="100" y1="420" x2="180" y2="340" style="fill:none; stroke:black; stroke-width:"2" />
<line x1="180" y1="420" x2="260" y2="420" style="fill:none; stroke:black; stroke-width:"2" />
<line x1="180" y1="420" x2="180" y2="340" style="fill:none; stroke:black; stroke-width:"2" />
<line x1="180" y1="420" x2="260" y2="340" style="fill:none; stroke:black; stroke-width:"2" />
<line x1="260" y1="420" x2="340" y2="420" style="fill:none; stroke:black; stroke-width:"2" />
<line x1="260" y1="420" x2="260" y2="340" style="fill:none; stroke:black; stroke-width:"2" />
<line x1="260" y1="420" x2="340" y2="340" style="fill:none; stroke:black; stroke-width:"2" />
<line x1="340" y1="420" x2="420" y2="420" style="fill:none; stroke:black; stroke-width:"2" />
<line x1="340" y1="420" x2="340" y2="340" style="fill:none; stroke:black; stroke-width:"2" />
<line x1="340" y1="420" x2="420" y2="340" style="fill:none; stroke:black; stroke-width:"2" />
<line x1="420" y1="420" x2="500" y2="420" style="fill:none; stroke:black; stroke-width:"2" />
<line x1="420" y1="420" x2="420" y2="340" style="fill:none; stroke:black; stroke-width:"2" />
<line x1="420" y1="420" x2="500" y2="340" style="fill:none; stroke:black; stroke-width:"2" />
<line x1="500" y1="420" x2="580" y2="420" style="fill:none; stroke:black; stroke-width:"2" />
<line x1="500" y1="420" x2="500" y2="340" style="fill:none; stroke:black; stroke-width:"2" />
<line x1="500" y1="420" x2="580" y2="340" style="fill:none; stroke:black; stroke-width:"2" />
<line x1="580" y1="420" x2="660" y2="420" style="fill:none; stroke:black; stroke-width:"2" />
<line x1="580" y1="420" x2="580" y2="340" style="fill:none; stroke:black; stroke-width:"2" />
<line x1="580" y1="420" x2="660" y2="340" style="fill:none; stroke:black; stroke-width:"2" />
<line x1="660" y1="420" x2="740" y2="420" style="fill:none; stroke:black; stroke-width:"2" />
<line x1="660" y1="420" x2="660" y2="340" style="fill:none; stroke:black; stroke-width:"2" />
<line x1="660" y1="420" x2="740" y2="340" style="fill:none; stroke:black; stroke-width:"2" />
<line x1="740" y1="420" x2="820" y2="420" style="fill:none; stroke:black; stroke-width:"2" />
<line x1="740" y1="420" x2="740" y2="340" style="fill:none; stroke:black; stroke-width:"2" />
<line x1="740" y1="420" x2="820" y2="340" style="fill:none; stroke:black; stroke-width:"2" />
<line x1="820" y1="420" x2="820" y2="340" style="fill:none; stroke:black; stroke-width:"2" />
<line x1="20" y1="340" x2="100" y2="340" style="fill:none; stroke:black; stroke-width:"2" />
<line x1="20" y1="340" x2="20" y2="260" style="fill:none; stroke:black; stroke-width:"2" />
<line x1="20" y1="340" x2="100" y2="260" style="fill:none; stroke:black; stroke-width:"2" />
<line x1="100" y1="340" x2="180" y2="340" style="fill:none; stroke:black; stroke-width:"2" />
<line x1="100" y1="340" x2="100" y2="260" style="fill:none; stroke:black; stroke-width:"2" />
<line x1="100" y1="340" x2="180" y2="260" style="fill:none; stroke:black; stroke-width:"2" />
<line x1="180" y1="340" x2="260" y2="340" style="fill:none; stroke:black; stroke-width:"2" />
<line x1="180" y1="340" x2="180" y2="260" style="fill:none; stroke:black; stroke-width:"2" />
<line x1="180" y1="340" x2="260" y2="260" style="fill:none; stroke:black; stroke-width:"2" />
<line x1="260" y1="340" x2="340" y2="340" style="fill:none; stroke:black; stroke-width:"2" />
<line x1="260" y1="340" x2="260" y2="260" style="fill:none; stroke:black; stroke-width:"2" />
<line x1="260" y1="340" x2="340" y2="260" style="fill:none; stroke:black; stroke-width:"2" />
<line x1="340" y1="340" x2="420" y2="340" style="fill:none; stroke:black; stroke-width:"2" />
<line x1="340" y1="340" x2="340" y2="260" style="fill:none; stroke:black; stroke-width:"2" />
<line x1="340" y1="340" x2="420" y2="260" style="fill:none; stroke:black; stroke-width:"2" />
<line x1="420" y1="340" x2="500" y2="340" style="fill:none; stroke:black; stroke-width:"2" />
<line x1="420" y1="340" x2="420" y2="260" style="fill:none; stroke:black; stroke-width:"2" />
<line x1="420" y1="340" x2="500" y2="260" style="fill:none; stroke:black; stroke-width:"2" />
<line x1="500" y1="340" x2="580" y2="340" style="fill:none; stroke:black; stroke-width:"2" />
<line x1="500" y1="340" x2="500" y2="260" style="fill:none; stroke:black; stroke-width:"2" />
<line x1="500" y1="340" x2="580" y2="260" style="fill:none; stroke:black; stroke-width:"2" />
<line x1="580" y1="340" x2="660" y2="340" style="fill:none; stroke:black; stroke-width:"2" />
<line x1="580" y1="340" x2="580" y2="260" style="fill:none; stroke:black; stroke-width:"2" />
<line x1="580" y1="340" x2="660" y2="260" style="fill:none; stroke:black; stroke-width:"2" />
<line x1="660" y1="340" x2="740" y2="340" style="fill:none; stroke:black; stroke-width:"2" />
<line x1="660" y1="340" x2="660" y2="260" style="fill:none; stroke:black; stroke-width:"2" />
<line x1="660" y1="340" x2="740" y2="260" style="fill:none; stroke:black; stroke-width:"2" />
<line x1="740" y1="340" x2="820" y2="340" style="fill:none; stroke:black; stroke-width:"2" />
<line x1="740" y1="340" x2="740" y2="260" style="fill:none; stroke:black; stroke-width:"2" />
<line x1="740" y1="340" x2="820" y2="260" style="fill:none; stroke:black; stroke-width:"2" />
<line x1="820" y1="340" x2="820" y2="260" style="fill:none; stroke:black; stroke-width:"2" />
<line x1="20" y1="260" x2="100" y2="260" style="fill:none; stroke:black; stroke-width:"2" />
<line x1="20" y1="260" x2="20" y2="179" style="fill:none; stroke:black; stroke-width:"2" />
<line x1="20" y1="260" x2="100" y2="179" style="fill:none; stroke:black; stroke-width:"2" />
<line x1="100" y1="260" x2="180" y2="260" style="fill:none; stroke:black; stroke-width:"2" />
<line x1="100" y1="260" x2="100" y2="179" style="fill:none; stroke:black; stroke-width:"2" />
<line x1="100" y1="260" x2="180" y2="179" style="fill:none; stroke:black; stroke-width:"2" />
<line x1="180" y1="260" x2="260" y2="260" style="fill:none; stroke:black; stroke-width:"2" />
<line x1="180" y1="260" x2="180" y2="179" style="fill:none; stroke:black; stroke-width:"2" />
<line x1="180" y1="260" x2="260" y2="179" style="fill:none; stroke:black; stroke-width:"2" />
<line x1="260" y1="260" x2="340" y2="260" style="fill:none; stroke:black; stroke-width:"2" />
<line x1="260" y1="260" x2="260" y2="179" style="fill:none; stroke:black; stroke-width:"2" />
<line x1="260" y1="260" x2="340" y2="179" style="fill:none; stroke:black; stroke-width:"2" />
<line x1="340" y1="260" x2="420" y2="260" style="fill:none; stroke:black; stroke-width:"2" />
<line x1="340" y1="260" x2="340" y2="179" style="fill:none; stroke:black; stroke-width:"2" />
<line x1="340" y1="260" x2="420" y2="179" style="fill:none; stroke:black; stroke-width:"2" />
<line x1="420" y1="260" x2="500" y2="260" style="fill:none; stroke:black; stroke-width:"2" />
<line x1="420" y1="260" x2="420" y2="179" style="fill:none; stroke:black; stroke-width:"2" />
<line x1="420" y1="260" x2="500" y2="179" style="fill:none; stroke:black; stroke-width:"2" />
<line x1="500" y1="260" x2="580" y2="260" style="fill:none; stroke:black; stroke-width:"2" />
<line x1="500" y1="260" x2="500" y2="179" style="fill:none; stroke:black; stroke-width:"2" />
<line x1="500" y1="260" x2="580" y2="179" style="fill:none; stroke:black; stroke-width:"2" />
<line x1="580" y1="260" x2="660" y2="260" style="fill:none; stroke:black; stroke-width:"2" />
<line x1="580" y1="260" x2="580" y2="179" style="fill:none; stroke:black; stroke-width:"2" />
<line x1="580" y1="260" x2="660" y2="179" style="fill:none; stroke:black; stroke-width:"2" />
<line x1="660" y1="260" x2="740" y2="260" style="fill:none; stroke:black; stroke-width:"2" />
<line x1="660" y1="260" x2="660" y2="179" style="fill:none; stroke:black; stroke-width:"2" />
<line x1="660" y1="260" x2="740" y2="179" style="fill:none; stroke:black; stroke-width:"2" />
<line x1="740" y1="260" x2="820" y2="260" style="fill:none; stroke:black; stroke-width:"2" />
<line x1="740" y1="260" x2="740" y2="179" style="fill:none; stroke:black; stroke-width:"2" />
<line x1="740" y1="260" x2="820" y2="179" style="fill:none; stroke:black; stroke-width:"2" />
<line x1="820" y1="260" x2="820" y2="179" style="fill:none; stroke:black; stroke-width:"2" />
<line x1="20" y1="179" x2="100" y2="179" style="fill:none; stroke:black; stroke-width:"2" />
<line x1="20" y1="179" x2="20" y2="99" style="fill:none; stroke:black; stroke-width:"2" />
<line x1="20" y1="179" x2="100" y2="99" style="fill:none; stroke:black; stroke-width:"2" />
<line x1="100" y1="179" x2="180" y2="179" style="fill:none; stroke:black; stroke-width:"2" />
<line x1="100" y1="179" x2="100" y2="99" style="fill:none; stroke:black; stroke-width:"2" />
<line x1="100" y1="179" x2="180" y2="99" style="fill:none; stroke:black; stroke-width:"2" />
<line x1="180" y1="179" x2="260" y2="179" style="fill:none; stroke:black; stroke-width:"2" />
<line x1="180" y1="179" x2="180" y2="99" style="fill:none; stroke:black; stroke-width:"2" />
<line x1="180" y1="179" x2="260" y2="99" style="fill:none; stroke:black; stroke-width:"2" />
<line x1="260" y1="179" x2="340" y2="179" style="fill:none; stroke:black; stroke-width:"2" />
<line x1="260" y1="179" x2="260" y2="99" style="fill:none; stroke:black; stroke-width:"2" />
<line x1="260" y1="179" x2="340" y2="99" style="fill:none; stroke:black; stroke-width:"2" />
<line x1="340" y1="179" x2="420" y2="179" style="fill:none; stroke:black; stroke-width:"2" />
<line x1="340" y1="179" x2="340" y2="99" style="fill:none; stroke:black; stroke-width:"2" />
<line x1="340" y1="179" x2="420" y2="99" style="fill:none; stroke:black; stroke-width:"2" />
<line x1="420" y1="179" x2="500" y2="179" style="fill:none; stroke:black; stroke-width:"2" />
<line x1="420" y1="179" x2="420" y2="99" style="fill:none; stroke:black; stroke-width:"2" />
<line x1="420" y1="179" x2="500" y2="99" style="fill:none; stroke:black; stroke-width:"2" />
<line x1="500" y1="179" x2="580" y2="179" style="fill:none; stroke:black; stroke-width:"2" />
<line x1="500" y1="179" x2="500" y2="99" style="fill:none; stroke:black; stroke-width:"2" />
<line x1="500" y1="179" x2="580" y2="99" style="fill:none; stroke:black; stroke-width:"2" />
<line x1="580" y1="179" x2="660" y2="179" style="fill:none; stroke:black; stroke-width:"2" />
<line x1="580" y1="179" x2="580" y2="99" style="fill:none; stroke:black; stroke-width:"2" />
<line x1="580" y1="179" x2="660" y2="99" style="fill:none; stroke:black; stroke-width:"2" />
<line x1="660" y1="179" x2="740" y2="179" style="fill:none; stroke:black; stroke-width:"2" />
<line x1="660" y1="179" x2="660" y2="99" style="fill:none; stroke:black; stroke-width:"2" />
<line x1="660" y1="179" x2="740" y2="99" style="fill:none; stroke:black; stroke-width:"2" />
<line x1="740" y1="179" x2="820" y2="179" style="fill:none; stroke:black; stroke-width:"2" />
<line x1="740" y1="179" x2="740" y2="99" style="fill:none; stroke:black; stroke-width:"2" />
<line x1="740" y1="179" x2="820" y2="99" style="fill:none; stroke:black; stroke-width:"2" />
<line x1="820" y1="179" x2="820" y2="99" style="fill:none; stroke:black; stroke-width:"2" />
<line x1="20" y1="99" x2="100" y2="99" style="fill:none; stroke:black; stroke-width:"2" />
<line x1="20" y1="99" x2="20" y2="20" style="fill:none; stroke:black; stroke-width:"2" />
<line x1="20" y1="99" x2="100" y2="20" style="fill:none; stroke:black; stroke-width:"2" />
<line x1="100" y1="99" x2="180" y2="99" style="fill:none; stroke:black; stroke-width:"2" />
<line x1="100" y1="99" x2="100" y2="20" style="fill:none; stroke:black; stroke-width:"2" />
<line x1="100" y1="99" x2="180" y2="20" style="fill:none; stroke:black; stroke-width:"2" />
<line x1="180" y1="99" x2="260" y2="99" style="fill:none; stroke:black; stroke-width:"2" />
<line x1="180" y1="99" x2="180" y2="20" style="fill:none; stroke:black; stroke-width:"2" />
<line x1="180" y1="99" x2="260" y2="20" style="fill:none; stroke:black; stroke-width:"2" />
<line x1="260" y1="99" x2="340" y2="99" style="fill:none; stroke:black; stroke-width:"2" />
<line x1="260" y1="99" x2="260" y2="20" style="fill:none; stroke:black; stroke-width:"2" />
<line x1="260" y1="99" x2="340" y2="20" style="fill:none; stroke:black; stroke-width:"2" />
<line x1="340" y1="99" x2="420" y2="99" style="fill:none; stroke:black; stroke-width:"2" />
<line x1="340" y1="99" x2="340" y2="20" style="fill:none; stroke:black; stroke-width:"2" />
<line x1="340" y1="99" x2="420" y2="20" style="fill:none; stroke:black; stroke-width:"2" />
<line x1="420" y1="99" x2="500" y2="99" style="fill:none; stroke:black; stroke-width:"2" />
<line x1="420" y1="99" x2="420" y2="20" style="fill:none; stroke:black; stroke-width:"2" />
<line x1="420" y1="99" x2="500" y2="20" style="fill:none; stroke:black; stroke-width:"2" />
<line x1="500" y1="99" x2="580" y2="99" style="fill:none; stroke:black; stroke-width:"2" />
<line x1="500" y1="99" x2="500" y2="20" style="fill:none; stroke:black; stroke-width:"2" />
<line x1="500" y1="99" x2="580" y2="20" style="fill:none; stroke:black; stroke-width:"2" />
<line x1="580" y1="99" x2="660" y2="99" style="fill:none; stroke:black; stroke-width:"2" />
<line x1="580" y1="99" x2="580" y2="20" style="fill:none; stroke:black; stroke-width:"2" />
<line x1="580" y1="99" x2="660" y2="20" style="fill:none; stroke:black; stroke-width:"2" />
<line x1="660" y1="99" x2="740" y2="99" style="fill:none; stroke:black; stroke-width:"2" />
<line x1="660" y1="99" x2="660" y2="20" style="fill:none; stroke:black; stroke-width:"2" />
<line x1="660" y1="99" x2="740" y2="20" style="fill:none; stroke:black; stroke-width:"2" />
<line x1="740" y1="99" x2="820" y2="99" style="fill:none; stroke:black; stroke-width:"2" />
<line x1="740" y1="99" x2="740" y2="20" style="fill:none; stroke:black; stroke-width:"2" />
<line x1="740" y1="99" x2="820" y2="20" style="fill:none; stroke:black; stroke-width:"2" />
<line x1="820" y1="99" x2="820" y2="20" style="fill:none; stroke:black; stroke-width:"2" />
<line x1="20" y1="20" x2="100" y2="20" style="fill:none; stroke:black; stroke-width:"2" />
<line x1="100" y1="20" x2="180" y2="20" style="fill:none; stroke:black; stroke-width:"2" />
<line x1="180" y1="20" x2="260" y2="20" style="fill:none; stroke:black; stroke-width:"2" />
<line x1="260" y1="20" x2="340" y2="20" style="fill:none; stroke:black; stroke-width:"2" />
<line x1="340" y1="20" x2="420" y2="20" style="fill:none; stroke:black; stroke-width:"2" />
<line x1="420" y1="20" x2="500" y2="20" style="fill:none; stroke:black; stroke-width:"2" />
<line x1="500" y1="20" x2="580" y2="20" style="fill:none; stroke:black; stroke-width:"2" />
<line x1="580" y1="20" x2="660" y2="20" style="fill:none; stroke:black; stroke-width:"2" />
<line x1="660" y1="20" x2="740" y2="20" style="fill:none; stroke:black; stroke-width:"2" />
<line x1="740" y1="20" x2="820" y2="20" style="fill:none; stroke:black; stroke-width:"2" />
    <circle cx="20" cy="820" r="2" stroke="black" stroke-width="0" fill="red" />
<circle cx="100" cy="820" r="2" stroke="black" stroke-width="0" fill="red" />
<circle cx="180" cy="820" r="2" stroke="black" stroke-width="0" fill="red" />
<circle cx="260" cy="820" r="2" stroke="black" stroke-width="0" fill="red" />
<circle cx="340" cy="820" r="2" stroke="black" stroke-width="0" fill="red" />
<circle cx="420" cy="820" r="2" stroke="black" stroke-width="0" fill="red" />
<circle cx="500" cy="820" r="2" stroke="black" stroke-width="0" fill="red" />
<circle cx="580" cy="820" r="2" stroke="black" stroke-width="0" fill="red" />
<circle cx="660" cy="820" r="2" stroke="black" stroke-width="0" fill="red" />
<circle cx="740" cy="820" r="2" stroke="black" stroke-width="0" fill="red" />
<circle cx="820" cy="820" r="2" stroke="black" stroke-width="0" fill="red" />
<circle cx="20" cy="740" r="2" stroke="black" stroke-width="0" fill="red" />
<circle cx="100" cy="740" r="2" stroke="black" stroke-width="0" fill="red" />
<circle cx="180" cy="740" r="2" stroke="black" stroke-width="0" fill="red" />
<circle cx="260" cy="740" r="2" stroke="black" stroke-width="0" fill="red" />
<circle cx="340" cy="740" r="2" stroke="black" stroke-width="0" fill="red" />
<circle cx="420" cy="740" r="2" stroke="black" stroke-width="0" fill="red" />
<circle cx="500" cy="740" r="2" stroke="black" stroke-width="0" fill="red" />
<circle cx="580" cy="740" r="2" stroke="black" stroke-width="0" fill="red" />
<circle cx="660" cy="740" r="2" stroke="black" stroke-width="0" fill="red" />
<circle cx="740" cy="740" r="2" stroke="black" stroke-width="0" fill="red" />
<circle cx="820" cy="740" r="2" stroke="black" stroke-width="0" fill="red" />
<circle cx="20" cy="660" r="2" stroke="black" stroke-width="0" fill="red" />
<circle cx="100" cy="660" r="2" stroke="black" stroke-width="0" fill="red" />
<circle cx="180" cy="660" r="2" stroke="black" stroke-width="0" fill="red" />
<circle cx="260" cy="660" r="2" stroke="black" stroke-width="0" fill="red" />
<circle cx="340" cy="660" r="2" stroke="black" stroke-width="0" fill="red" />
<circle cx="420" cy="660" r="2" stroke="black" stroke-width="0" fill="red" />
<circle cx="500" cy="660" r="2" stroke="black" stroke-width="0" fill="red" />
<circle cx="580" cy="660" r="2" stroke="black" stroke-width="0" fill="red" />
<circle cx="660" cy="660" r="2" stroke="black" stroke-width="0" fill="red" />
<circle cx="740" cy="660" r="2" stroke="black" stroke-width="0" fill="red" />
<circle cx="820" cy="660" r="2" stroke="black" stroke-width="0" fill="red" />
<circle cx="20" cy="580" r="2" stroke="black" stroke-width="0" fill="red" />
<circle cx="100" cy="580" r="2" stroke="black" stroke-width="0" fill="red" />
<circle cx="180" cy="580" r="2" stroke="black" stroke-width="0" fill="red" />
<circle cx="260" cy="580" r="2" stroke="black" stroke-width="0" fill="red" />
<circle cx="340" cy="580" r="2" stroke="black" stroke-width="0" fill="red" />
<circle cx="420" cy="580" r="2" stroke="black" stroke-width="0" fill="red" />
<circle cx="500" cy="580" r="2" stroke="black" stroke-width="0" fill="red" />
<circle cx="580" cy="580" r="2" stroke="black" stroke-width="0" fill="red" />
<circle cx="660" cy="580" r="2" stroke="black" stroke-width="0" fill="red" />
<circle cx="740" cy="580" r="2" stroke="black" stroke-width="0" fill="red" />
<circle cx="820" cy="580" r="2" stroke="black" stroke-width="0" fill="red" />
<circle cx="20" cy="500" r="2" stroke="black" stroke-width="0" fill="red" />
<circle cx="100" cy="500" r="2" stroke="black" stroke-width="0" fill="red" />
<circle cx="180" cy="500" r="2" stroke="black" stroke-width="0" fill="red" />
<circle cx="260" cy="500" r="2" stroke="black" stroke-width="0" fill="red" />
<circle cx="340" cy="500" r="2" stroke="black" stroke-width="0" fill="red" />
<circle cx="420" cy="500" r="2" stroke="black" stroke-width="0" fill="red" />
<circle cx="500" cy="500" r="2" stroke="black" stroke-width="0" fill="red" />
<circle cx="580" cy="500" r="2" stroke="black" stroke-width="0" fill="red" />
<circle cx="660" cy="500" r="2" stroke="black" stroke-width="0" fill="red" />
<circle cx="740" cy="500" r="2" stroke="black" stroke-width="0" fill="red" />
<circle cx="820" cy="500" r="2" stroke="black" stroke-width="0" fill="red" />
<circle cx="20" cy="420" r="2" stroke="black" stroke-width="0" fill="red" />
<circle cx="100" cy="420" r="2" stroke="black" stroke-width="0" fill="red" />
<circle cx="180" cy="420" r="2" stroke="black" stroke-width="0" fill="red" />
<circle cx="260" cy="420" r="2" stroke="black" stroke-width="0" fill="red" />
<circle cx="340" cy="420" r="2" stroke="black" stroke-width="0" fill="red" />
<circle cx="420" cy="420" r="2" stroke="black" stroke-width="0" fill="red" />
<circle cx="500" cy="420" r="2" stroke="black" stroke-width="0" fill="red" />
<circle cx="580" cy="420" r="2" stroke="black" stroke-width="0" fill="red" />
<circle cx="660" cy="420" r="2" stroke="black" stroke-width="0" fill="red" />
<circle cx="740" cy="420" r="2" stroke="black" stroke-width="0" fill="red" />
<circle cx="820" cy="420" r="2" stroke="black" stroke-width="0" fill="red" />
<circle cx="20" cy="340" r="2" stroke="black" stroke-width="0" fill="red" />
<circle cx="100" cy="340" r="2" stroke="black" stroke-width="0" fill="red" />
<circle cx="180" cy="340" r="2" stroke="black" stroke-width="0" fill="red" />
<circle cx="260" cy="340" r="2" stroke="black" stroke-width="0" fill="red" />
<circle cx="340" cy="340" r="2" stroke="black" stroke-width="0" fill="red" />
<circle cx="420" cy="340" r="2" stroke="black" stroke-width="0" fill="red" />
<circle cx="500" cy="340" r="2" stroke="black" stroke-width="0" fill="red" />
<circle cx="580" cy="340" r="2" stroke="black" stroke-width="0" fill="red" />
<circle cx="660" cy="340" r="2" stroke="black" stroke-width="0" fill="red" />
<circle cx="740" cy="340" r="2" stroke="black" stroke-width="0" fill="red" />
<circle cx="820" cy="340" r="2" stroke="black" stroke-width="0" fill="red" />
<circle cx="20" cy="260" r="2" stroke="black" stroke-width="0" fill="red" />
<circle cx="100" cy="260" r="2" stroke="black" stroke-width="0" fill="red" />
<circle cx="180" cy="260" r="2" stroke="black" stroke-width="0" fill="red" />
<circle cx="260" cy="260" r="2" stroke="black" stroke-width="0" fill="red" />
<circle cx="340" cy="260" r="2" stroke="black" stroke-width="0" fill="red" />
<circle cx="420" cy="260" r="2" stroke="black" stroke-width="0" fill="red" />
<circle cx="500" cy="260" r="2" stroke="black" stroke-width="0" fill="red" />
<circle cx="580" cy="260" r="2" stroke="black" stroke-width="0" fill="red" />
<circle cx="660" cy="260" r="2" stroke="black" stroke-width="0" fill="red" />
<circle cx="740" cy="260" r="2" stroke="black" stroke-width="0" fill="red" />
<circle cx="820" cy="260" r="2" stroke="black" stroke-width="0" fill="red" />
<circle cx="20" cy="179" r="2" stroke="black" stroke-width="0" fill="red" />
<circle cx="100" cy="179" r="2" stroke="black" stroke-width="0" fill="red" />
<circle cx="180" cy="179" r="2" stroke="black" stroke-width="0" fill="red" />
<circle cx="260" cy="179" r="2" stroke="black" stroke-width="0" fill="red" />
<circle cx="340" cy="179" r="2" stroke="black" stroke-width="0" fill="red" />
<circle cx="420" cy="179" r="2" stroke="black" stroke-width="0" fill="red" />
<circle cx="500" cy="179" r="2" stroke="black" stroke-width="0" fill="red" />
<circle cx="580" cy="179" r="2" stroke="black" stroke-width="0" fill="red" />
<circle cx="660" cy="179" r="2" stroke="black" stroke-width="0" fill="red" />
<circle cx="740" cy="179" r="2" stroke="black" stroke-width="0" fill="red" />
<circle cx="820" cy="179" r="2" stroke="black" stroke-width="0" fill="red" />
<circle cx="20" cy="99" r="2" stroke="black" stroke-width="0" fill="red" />
<circle cx="100" cy="99" r="2" stroke="black" stroke-width="0" fill="red" />
<circle cx="180" cy="99" r="2" stroke="black" stroke-width="0" fill="red" />
<circle cx="260" cy="99" r="2" stroke="black" stroke-width="0" fill="red" />
<circle cx="340" cy="99" r="2" stroke="black" stroke-width="0" fill="red" />
<circle cx="420" cy="99" r="2" stroke="black" stroke-width="0" fill="red" />
<circle cx="500" cy="99" r="2" stroke="black" stroke-width="0" fill="red" />
<circle cx="580" cy="99" r="2" stroke="black" stroke-width="0" fill="red" />
<circle cx="660" cy="99" r="2" stroke="black" stroke-width="0" fill="red" />
<circle cx="740" cy="99" r="2" stroke="black" stroke-width="0" fill="red" />
<circle cx="820" cy="99" r="2" stroke="black" stroke-width="0" fill="red" />
<circle cx="20" cy="20" r="2" stroke="black" stroke-width="0" fill="red" />
<circle cx="100" cy="20" r="2" stroke="black" stroke-width="0" fill="red" />
<circle cx="180" cy="20" r="2" stroke="black" stroke-width="0" fill="red" />
<circle cx="260" cy="20" r="2" stroke="black" stroke-width="0" fill="red" />
<circle cx="340" cy="20" r="2" stroke="black" stroke-width="0" fill="red" />
<circle cx="420" cy="20" r="2" stroke="black" stroke-width="0" fill="red" />
<circle cx="500" cy="20" r="2" stroke="black" stroke-width="0" fill="red" />
<circle cx="580" cy="20" r="2" stroke="black" stroke-width="0" fill="red" />
<circle cx="660" cy="20" r="2" stroke="black" stroke-width="0" fill="red" />
<circle cx="740" cy="20" r="2" stroke="black" stroke-width="0" fill="red" />
<circle cx="820" cy="20" r="2" stroke="black" stroke-width="0" fill="red" />
    </svg>
    